M48
; DRILL file {KiCad 7.0.10} date Sat Apr 20 16:09:22 2024
; FORMAT={-:-/ absolute / metric / decimal}
; #@! TF.CreationDate,2024-04-20T16:09:22+02:00
; #@! TF.GenerationSoftware,Kicad,Pcbnew,7.0.10
; #@! TF.FileFunction,Plated,1,4,PTH
FMAT,2
METRIC
; #@! TA.AperFunction,Plated,PTH,ViaDrill
T1C0.300
; #@! TA.AperFunction,Plated,PTH,ViaDrill
T2C0.400
; #@! TA.AperFunction,Plated,PTH,ViaDrill
T3C0.508
; #@! TA.AperFunction,Plated,PTH,ComponentDrill
T4C1.000
; #@! TA.AperFunction,Plated,PTH,ComponentDrill
T5C1.100
; #@! TA.AperFunction,Plated,PTH,ComponentDrill
T6C1.200
; #@! TA.AperFunction,Plated,PTH,ComponentDrill
T7C1.300
%
G90
G05
T1
X85.852Y-108.204
X85.852Y-110.236
X87.884Y-108.204
X87.884Y-110.236
T2
X55.959Y-142.748
X66.548Y-104.394
X70.866Y-115.316
X71.12Y-96.774
X71.305Y-135.128
X77.216Y-114.046
X77.47Y-110.042
X80.584Y-103.758
X81.28Y-112.522
X82.55Y-106.994
X83.058Y-110.042
X85.598Y-120.65
X85.918Y-101.472
X86.614Y-114.046
X87.122Y-115.753
X88.392Y-130.193
X90.932Y-106.426
X91.44Y-103.632
X93.98Y-112.014
X94.773Y-96.982
X95.758Y-104.902
X97.028Y-99.822
X98.298Y-106.172
X101.092Y-122.174
X102.87Y-108.485
X103.378Y-110.744
X103.505Y-128.905
X103.632Y-123.698
X105.156Y-110.744
X105.664Y-123.19
X105.664Y-131.064
X105.913Y-108.463
X106.172Y-109.982
X106.68Y-99.822
X106.755Y-124.46
X106.934Y-114.3
X107.188Y-107.31
X107.442Y-135.636
X108.966Y-112.776
X109.03Y-114.554
X109.22Y-99.822
X109.22Y-121.412
X109.728Y-131.064
X110.231Y-112.781
X110.49Y-122.174
X111.506Y-120.142
X111.76Y-138.176
X113.03Y-116.84
X113.538Y-112.268
X113.538Y-121.158
X114.046Y-124.206
X114.3Y-100.076
X114.554Y-130.048
X115.062Y-110.31
X115.062Y-117.348
X116.078Y-100.076
X116.332Y-108.892
X116.586Y-117.348
X116.967Y-128.905
X117.094Y-119.126
X118.237Y-113.03
X118.962Y-110.908
X119.38Y-138.176
X119.814Y-106.426
X119.888Y-114.3
X122.936Y-114.808
X123.698Y-106.172
X123.892Y-121.856
X124.46Y-99.822
X125.222Y-120.396
X125.476Y-138.176
X125.984Y-108.204
X126.804Y-104.835
X127.066Y-136.586
X127.508Y-119.38
X127.508Y-132.842
X128.524Y-118.364
X128.524Y-131.505
X129.54Y-115.824
X129.794Y-117.602
X129.794Y-130.235
X129.826Y-103.567
X131.318Y-140.208
X132.08Y-99.822
X134.3Y-113.858
X134.553Y-128.965
X134.62Y-132.775
X134.62Y-138.43
X139.088Y-139.803
T3
X56.03Y-139.192
X86.291Y-138.829
T4
X88.392Y-147.32
X90.932Y-147.32
X91.014Y-121.494
X92.81Y-123.29
X93.472Y-147.32
X94.606Y-125.086
X96.012Y-147.32
X96.402Y-126.882
X98.198Y-128.678
X98.552Y-147.32
X99.994Y-130.474
X101.092Y-147.32
T5
X106.68Y-91.44
X106.68Y-147.32
X109.22Y-91.44
X109.22Y-147.32
X111.76Y-91.44
X111.76Y-147.32
X114.3Y-91.44
X114.3Y-147.32
X116.84Y-91.44
X116.84Y-147.32
X119.38Y-91.44
X119.38Y-147.32
X124.46Y-91.44
X124.46Y-147.32
X127.0Y-91.44
X127.0Y-147.32
X129.54Y-91.44
X129.54Y-147.32
X132.08Y-91.44
X132.08Y-147.32
X134.62Y-91.44
X134.62Y-147.32
X137.16Y-91.44
X137.16Y-147.32
X144.78Y-99.06
X144.78Y-101.6
X144.78Y-104.14
X144.78Y-106.68
X144.78Y-109.22
X144.78Y-111.76
X144.78Y-114.3
X144.78Y-116.84
X144.78Y-121.92
X144.78Y-124.46
X144.78Y-127.0
X144.78Y-129.54
X144.78Y-132.08
X144.78Y-134.62
X144.78Y-137.16
X144.78Y-139.7
T6
X94.488Y-91.44
X97.028Y-91.44
X99.568Y-91.44
T7
X58.877Y-114.38
X58.877Y-119.38
X58.928Y-99.14
X58.928Y-104.14
X58.928Y-129.9
X58.928Y-134.9
M30
